<svg class="svg-icon" style="width: 1em; height: 1em;vertical-align: middle;fill: currentColor;overflow: hidden;" viewBox="0 0 1024 1024" version="1.1" xmlns="http://www.w3.org/2000/svg"><path d="M210.936 805.16m-46.884 0a46.884 46.884 0 1 0 93.768 0 46.884 46.884 0 1 0-93.768 0Z" fill="#FCC800" /><path d="M869.244 430.104H421.704v93.748h447.54a21.44 21.44 0 0 0 21.464-21.46v-50.824a21.448 21.448 0 0 0-21.464-21.464z" fill="#E8E6F4" /><path d="M93.728 523.868h836.54v46.88H93.728z" fill="#8479B9" /><path d="M287.688 251.192a21.496 21.496 0 0 0-17.172-8.628H198.832c-17.9 0-27.944 20.604-16.912 34.728l193.124 246.564h46.66v-93.748L287.688 251.192z" fill="#E8E6F4" /><path d="M869.244 430.104h-408.48v54.688h429.94v-33.224a21.44 21.44 0 0 0-21.46-21.464zM421.704 430.104L287.688 251.192a21.496 21.496 0 0 0-17.172-8.628H224.416l189.688 242.228h46.66v-54.688h-39.06z" fill="#94D3CC" /><path d="M187.492 570.752h46.884v187.528H187.492zM796.96 570.752h46.88v187.528h-46.88z" fill="#EB6B69" /><path d="M820.4 805.16m-46.884 0a46.884 46.884 0 1 0 93.768 0 46.884 46.884 0 1 0-93.768 0Z" fill="#FCC800" /><path d="M568.8 212.592V171.96H521.792v40.632H481.16V259.6h40.632v40.632H568.8V259.6h40.632V212.592z" fill="#EB6B69" /><path d="M942.268 582.752v-70.884h-40.932a33.32 33.32 0 0 0 1.384-9.464v-50.836c0-18.452-15.012-33.464-33.46-33.464H427.72L297.3 243.98a33.604 33.604 0 0 0-26.78-13.404H198.816a33.228 33.228 0 0 0-30.084 18.812 33.224 33.224 0 0 0 3.736 35.284l177.916 227.196H81.732v70.884h93.76v175.5c-14.204 10.76-23.436 27.752-23.436 46.908 0 32.468 26.416 58.88 58.88 58.88 32.468 0 58.884-26.416 58.884-58.88a58.6 58.6 0 0 0-13.476-37.448l259.324-119.14 259.328 119.14a58.624 58.624 0 0 0-13.476 37.448c0 32.468 26.416 58.88 58.884 58.88 32.464 0 58.88-26.416 58.88-58.88 0-19.156-9.232-36.148-23.436-46.908v-175.5h86.42z m-508.552-140.648h435.548a9.472 9.472 0 0 1 9.46 9.464v50.836a9.476 9.476 0 0 1-9.46 9.464H433.716v-69.764zM191.368 269.872c-3.292-4.204-1.836-8.376-1.06-9.976 0.78-1.6 3.168-5.32 8.508-5.32h12.884l28.304 37.792 19.212-14.388-17.528-23.408h28.832c2.964 0 5.792 1.416 7.572 3.788l131.624 175.736v77.768h-28.848L191.368 269.872z m19.564 570.168c-19.232 0-34.88-15.648-34.88-34.88 0-19.236 15.648-34.884 34.88-34.884 19.236 0 34.884 15.648 34.884 34.884 0 19.232-15.648 34.88-34.884 34.88z m-11.44-93.764v-163.528h22.884v163.528h-22.884z m46.884-0.396v-163.132h126.02l114.528 52.616-240.548 110.516z m183.504-163.128h171.568l-85.784 39.412-85.784-39.412z m355.08 163.128l-240.552-110.516 114.528-52.616h126.024v163.132z m35.444 94.16c-19.236 0-34.884-15.648-34.884-34.88 0-19.236 15.648-34.884 34.884-34.884 19.232 0 34.88 15.648 34.88 34.884-0.004 19.232-15.652 34.88-34.88 34.88z m-11.444-93.764v-163.528h22.884v163.528h-22.884zM105.732 558.752v-22.884h812.54v22.884H105.732z" fill="#44294F" /><path d="M820.4 805.16m-15.812 0a15.812 15.812 0 1 0 31.624 0 15.812 15.812 0 1 0-31.624 0Z" fill="#44294F" /><path d="M210.936 805.16m-15.812 0a15.812 15.812 0 1 0 31.624 0 15.812 15.812 0 1 0-31.624 0Z" fill="#44294F" /><path d="M580.8 200.592V159.96h-71.012v40.632H469.16V271.6h40.628v40.632H580.8V271.6h40.632V200.592H580.8z m16.632 47.008H556.8v40.632h-23.012V247.6H493.16v-23.008h40.628V183.96h23.012v40.632h40.632V247.6zM262.428 322.336l19.212-14.384 25.888 34.572-19.208 14.384z" fill="#44294F" /><path d="M800.916 369.556h-289.208c-30.284 0-54.924 24.64-54.924 54.924v111.1h24V487.32h351.06v48.26h24V424.48c0-30.284-24.64-54.924-54.928-54.924z m-250.364 93.764h-69.764v-38.84c0-17.052 13.876-30.924 30.924-30.924h38.84v69.764z m187.528 0h-163.528V393.556h163.528v69.764z m93.764 0H762.08V393.556h38.84c17.052 0 30.924 13.872 30.924 30.924v38.84zM332.096 369.556h-148.56c-30.284 0-54.924 24.64-54.924 54.924v111.1h24V487.32h210.416v48.26h24V424.48c-0.004-30.284-24.644-54.924-54.932-54.924z m30.928 93.764H152.608v-38.84c0-17.052 13.876-30.924 30.924-30.924h148.564c17.052 0 30.924 13.872 30.924 30.924v38.84z" fill="#FCC800" /></svg>