<svg class="svg-icon" style="width: 1em;height: 1em;vertical-align: middle;fill: currentColor;overflow: hidden;" viewBox="0 0 1024 1024" version="1.1" xmlns="http://www.w3.org/2000/svg"><path d="M504 816m-144 0a144 144 0 1 0 288 0 144 144 0 1 0-288 0Z" fill="#F9CFCF" /><path d="M504 968c-83.812 0-152-68.188-152-152s68.188-152 152-152 152 68.188 152 152-68.188 152-152 152z m0-288c-74.992 0-136 61.008-136 136s61.008 136 136 136c74.992 0 136-61.008 136-136s-61.008-136-136-136z" fill="#3762CC" /><path d="M427.392 829.004h-0.284a23.908 23.908 0 0 1-23.908-23.908v-13.3a23.908 23.908 0 0 1 23.908-23.908h0.284a23.908 23.908 0 0 1 23.908 23.908v13.3a23.908 23.908 0 0 1-23.908 23.908zM580.608 829.004h0.284a23.908 23.908 0 0 0 23.908-23.908v-13.3a23.908 23.908 0 0 0-23.908-23.908h-0.284a23.908 23.908 0 0 0-23.908 23.908v13.3a23.908 23.908 0 0 0 23.908 23.908zM473.42 785.252h-0.284a23.908 23.908 0 0 1-23.908-23.908v-13.3a23.908 23.908 0 0 1 23.908-23.908h0.284a23.908 23.908 0 0 1 23.908 23.908v13.3a23.908 23.908 0 0 1-23.908 23.908zM533.284 785.252h0.284a23.908 23.908 0 0 0 23.908-23.908v-13.3a23.908 23.908 0 0 0-23.908-23.908h-0.284a23.908 23.908 0 0 0-23.908 23.908v13.3a23.904 23.904 0 0 0 23.908 23.908zM551.252 832.064c-2.128-0.524-3.608-2.308-3.608-4.344 0-22.264-19.54-40.316-43.64-40.316-24.104 0-43.64 18.048-43.64 40.316 0 2.036-1.48 3.82-3.608 4.344-18.396 4.54-31.952 20.036-31.952 38.464v0.984c0 21.992 19.3 39.824 43.108 39.824h72.18c23.808 0 43.108-17.828 43.108-39.824v-0.984c0-18.428-13.552-33.924-31.948-38.464zM67.928 325.344C138.448 257.704 305.32 209.716 501.128 208h21.74c195.812 1.716 362.68 49.704 433.2 117.344C979.208 303.148 992 278.84 992 253.352 992 150.18 782.944 66.28 522.872 64h-21.74C241.056 66.28 32 150.18 32 253.352c0 25.488 12.792 49.796 35.928 71.992z" fill="#4671C6" /><path d="M512 444.052C254.852 444.052 44.94 364.26 32.588 264H32v144h0.588c12.356 100.26 222.264 180.052 479.412 180.052S979.06 508.26 991.412 408H992V264h-0.588c-12.352 100.26-222.264 180.052-479.412 180.052z" fill="#A4C9FF" /><path d="M512 588.052c106.976 0 205.76-13.816 285.56-37.164 29.812-8.724 50.44-35.852 50.44-66.916 0-45-42.06-78.232-85.804-67.664-72.852 17.6-158.516 27.748-250.196 27.748C265.2 444.052 61.952 370.552 35.064 276H32v132h0.588c12.352 100.26 222.264 180.052 479.412 180.052z" fill="#E0EBFC" /><path d="M512 596.056c-125.024 0-243.756-18.804-334.328-52.944-90.5-34.116-144.512-80.576-152.6-131.104A7.992 7.992 0 0 1 24 408V264a8 8 0 0 1 8-8h0.584a8 8 0 0 1 7.94 7.02c11.76 95.412 223.26 173.036 471.476 173.036s459.716-77.624 471.472-173.032a8.004 8.004 0 0 1 7.94-7.02H992a8 8 0 0 1 8 8v144c0 1.46-0.392 2.832-1.076 4.008-8.084 50.528-62.096 96.988-152.596 131.104-90.572 34.136-209.304 52.94-334.328 52.94zM40 404.992c0.256 0.636 0.436 1.32 0.524 2.028C52.28 502.432 263.784 580.052 512 580.052s459.716-77.624 471.472-173.032a7.92 7.92 0 0 1 0.528-2.028V305.636c-22.992 35.736-70.188 68.036-137.672 93.476-90.572 34.14-209.304 52.944-334.328 52.944-125.024 0-243.756-18.804-334.328-52.944C110.188 373.672 62.992 341.372 40 305.636v99.356z" fill="#3762CC" /><path d="M67.928 333.344c-1.996 0-3.992-0.744-5.54-2.228C36.916 306.68 24 280.516 24 253.352 24 145.032 233.548 58.348 501.06 56h21.812C790.448 58.348 1000 145.032 1000 253.352c0 27.168-12.916 53.332-38.392 77.768a8.008 8.008 0 0 1-11.08 0C879.352 262.84 711.456 217.656 522.8 216h-21.672c-188.584 1.656-356.48 46.84-427.664 115.12a7.98 7.98 0 0 1-5.536 2.224zM522.872 200c187.728 1.648 356.08 46.288 432.956 114.252 18.704-19.68 28.172-40.14 28.172-60.904 0-97.768-206.896-179.12-461.2-181.352h-21.672C246.892 74.232 40 155.584 40 253.352c0 20.76 9.468 41.22 28.168 60.904C145.052 246.288 313.4 201.648 501.06 200h21.812z" fill="#3762CC" /><path d="M512 596.056c-125.024 0-243.756-18.804-334.328-52.944-90.5-34.116-144.512-80.576-152.6-131.104A7.992 7.992 0 0 1 24 408V276a8 8 0 0 1 8-8h3.064a8 8 0 0 1 7.696 5.812c12.344 43.408 65.964 83.94 150.984 114.132 87.356 31.024 200.384 48.108 318.256 48.108 87.912 0 173.776-9.516 248.32-27.524 23.208-5.604 47.284-0.344 66.068 14.432A77.192 77.192 0 0 1 856 483.968c0 34.24-23.108 64.916-56.196 74.592-83.812 24.532-183.336 37.496-287.804 37.496zM40 404.992c0.256 0.636 0.436 1.32 0.524 2.028C52.28 502.432 263.784 580.052 512 580.052c102.968 0 200.936-12.74 283.312-36.844 26.312-7.7 44.688-32.06 44.688-59.24 0-19.02-8.572-36.676-23.512-48.436a61.072 61.072 0 0 0-52.412-11.452c-75.752 18.3-162.92 27.972-252.08 27.972-224.748 0-416.872-61.332-472-146.564v99.504z" fill="#3762CC" /><path d="M588 412h-176a32 32 0 0 0-32 32v144a32 32 0 0 0 32 32h176a32 32 0 0 0 32-32v-144a32 32 0 0 0-32-32z m-16 144a16 16 0 0 1-16 16h-112a16 16 0 0 1-16-16v-80a16 16 0 0 1 16-16h112a16 16 0 0 1 16 16v80z" fill="#F9A7A7" /><path d="M588 628h-176c-22.056 0-40-17.944-40-40v-144c0-22.056 17.944-40 40-40h176c22.056 0 40 17.944 40 40v144c0 22.056-17.944 40-40 40z m-176-208c-13.236 0-24 10.764-24 24v144c0 13.236 10.764 24 24 24h176c13.236 0 24-10.764 24-24v-144c0-13.236-10.764-24-24-24h-176z m144 160h-112c-13.236 0-24-10.764-24-24v-80c0-13.236 10.764-24 24-24h112c13.236 0 24 10.764 24 24v80c0 13.236-10.764 24-24 24z m-112-112c-4.412 0-8 3.588-8 8v80c0 4.412 3.588 8 8 8h112c4.412 0 8-3.588 8-8v-80c0-4.412-3.588-8-8-8h-112z" fill="#3762CC" /><path d="M504 732a24 24 0 0 1-24-24v-136a24 24 0 1 1 48 0v136a24 24 0 0 1-24 24z" fill="#B9BEFC" /><path d="M504 740c-17.644 0-32-14.356-32-32v-136c0-17.644 14.356-32 32-32s32 14.356 32 32v136c0 17.644-14.356 32-32 32z m0-184c-8.824 0-16 7.176-16 16v136c0 8.824 7.176 16 16 16s16-7.176 16-16v-136c0-8.824-7.176-16-16-16z" fill="#3762CC" /></svg>