<svg class="svg-icon" style="width: 1em; height: 1em;vertical-align: middle;fill: currentColor;overflow: hidden;" viewBox="0 0 1024 1024" version="1.1" xmlns="http://www.w3.org/2000/svg"><path d="M837.056 154.16h-369.892c-21.936 0-39.72 17.784-39.72 39.72v245.188c0 21.936 17.784 39.72 39.72 39.72h369.892c21.936 0 39.72-17.784 39.72-39.72V193.88c0-21.936-17.784-39.72-39.72-39.72z" fill="#8D386D" /><path d="M837.056 142.16h-369.892c-28.52 0-51.72 23.2-51.72 51.72v245.188c0 28.52 23.2 51.72 51.72 51.72h369.892c28.52 0 51.72-23.2 51.72-51.72V193.88c0-28.52-23.2-51.72-51.72-51.72z m27.72 296.908a27.748 27.748 0 0 1-27.72 27.72h-369.892a27.748 27.748 0 0 1-27.72-27.72V193.88a27.748 27.748 0 0 1 27.72-27.72h369.892a27.748 27.748 0 0 1 27.72 27.72v245.188z" fill="#44294F" /><path d="M773.844 245.46m-40.576 0a40.576 40.576 0 1 0 81.152 0 40.576 40.576 0 1 0-81.152 0Z" fill="#FCC800" /><path d="M652.112 245.46m-40.58 0a40.58 40.58 0 1 0 81.16 0 40.58 40.58 0 1 0-81.16 0Z" fill="#FCC800" /><path d="M530.376 245.46m-40.58 0a40.58 40.58 0 1 0 81.16 0 40.58 40.58 0 1 0-81.16 0Z" fill="#FCC800" /><path d="M773.844 387.484m-40.58 0a40.58 40.58 0 1 0 81.16 0 40.58 40.58 0 1 0-81.16 0Z" fill="#FCC800" /><path d="M530.376 387.484m-40.58 0a40.58 40.58 0 1 0 81.16 0 40.58 40.58 0 1 0-81.16 0Z" fill="#FCC800" /><path d="M773.844 192.884c-28.992 0-52.58 23.584-52.58 52.58s23.584 52.58 52.58 52.58 52.58-23.584 52.58-52.58-23.588-52.58-52.58-52.58z m0 81.156c-15.756 0-28.58-12.82-28.58-28.58s12.82-28.58 28.58-28.58 28.58 12.82 28.58 28.58-12.82 28.58-28.58 28.58zM652.112 192.884c-28.992 0-52.58 23.584-52.58 52.58s23.584 52.58 52.58 52.58 52.58-23.584 52.58-52.58-23.588-52.58-52.58-52.58z m0 81.156c-15.756 0-28.58-12.82-28.58-28.58s12.82-28.58 28.58-28.58 28.58 12.82 28.58 28.58-12.824 28.58-28.58 28.58zM530.376 192.884c-28.992 0-52.58 23.584-52.58 52.58s23.584 52.58 52.58 52.58 52.58-23.584 52.58-52.58-23.588-52.58-52.58-52.58z m0 81.156c-15.756 0-28.58-12.82-28.58-28.58s12.82-28.58 28.58-28.58 28.58 12.82 28.58 28.58-12.824 28.58-28.58 28.58zM773.844 334.908c-28.992 0-52.58 23.584-52.58 52.58s23.584 52.58 52.58 52.58 52.58-23.584 52.58-52.58-23.588-52.58-52.58-52.58z m0 81.156c-15.756 0-28.58-12.82-28.58-28.58s12.82-28.58 28.58-28.58 28.58 12.82 28.58 28.58-12.82 28.58-28.58 28.58z" fill="#44294F" /><path d="M652.112 387.484m-40.58 0a40.58 40.58 0 1 0 81.16 0 40.58 40.58 0 1 0-81.16 0Z" fill="#FCC800" /><path d="M652.112 334.908c-28.992 0-52.58 23.584-52.58 52.58s23.584 52.58 52.58 52.58 52.58-23.584 52.58-52.58-23.588-52.58-52.58-52.58z m0 81.156c-15.756 0-28.58-12.82-28.58-28.58s12.82-28.58 28.58-28.58 28.58 12.82 28.58 28.58-12.824 28.58-28.58 28.58zM530.376 334.908c-28.992 0-52.58 23.584-52.58 52.58s23.584 52.58 52.58 52.58 52.58-23.584 52.58-52.58-23.588-52.58-52.58-52.58z m0 81.156c-15.756 0-28.58-12.82-28.58-28.58s12.82-28.58 28.58-28.58 28.58 12.82 28.58 28.58-12.824 28.58-28.58 28.58z" fill="#44294F" /><path d="M366.372 585.804h-34.22c-42.728 0-82.072 14.416-113.428 38.676-43.988 33.96-72.336 87.2-72.336 147.092v98.272h405.752v-98.272c0-102.58-83.152-185.768-185.768-185.768z" fill="#E8E6F4" /><path d="M366.372 585.804h-34.22c-42.728 0-82.072 14.416-113.428 38.676-24.188 31.356-38.528 70.628-38.528 113.28v98.272h371.944v-64.46c0-102.58-83.152-185.768-185.768-185.768z" fill="#94D3CC" /><path d="M215.528 748.116h24v121.736h-24zM458.996 748.116h24v121.736h-24zM418.42 820.304h24v49.548h-24zM418.42 748.116h24v41.228h-24z" fill="#44294F" /><path d="M349.244 261.192c-43.1 0-82.296 16.832-111.388 44.248-31.32 29.612-50.9 71.52-50.9 118.036 0 89.652 72.672 162.324 162.288 162.324 55.544 0 104.588-27.9 133.828-70.444a161.456 161.456 0 0 0 28.496-91.88c0-89.612-72.672-162.284-162.324-162.284z" fill="#E8E6F4" /><path d="M349.244 261.192c-43.1 0-82.296 16.832-111.388 44.248a161.388 161.388 0 0 0-28.608 92.028c0 89.652 72.672 162.324 162.288 162.324a161.496 161.496 0 0 0 111.536-44.436 161.456 161.456 0 0 0 28.496-91.88c0-89.612-72.672-162.284-162.324-162.284z" fill="#FFDDBE" /><path d="M349.26 250.04c-95.64 0-173.452 77.812-173.452 173.456 0 95.644 77.812 173.456 173.452 173.456 95.644 0 173.456-77.812 173.456-173.456 0-95.648-77.812-173.456-173.456-173.456z m0 324.616c-83.352 0-151.16-67.812-151.16-151.164s67.808-151.164 151.16-151.164c83.352 0 151.164 67.812 151.164 151.164s-67.812 151.164-151.164 151.164z" fill="#44294F" /><path d="M366.384 574.656h-34.244c-108.58 0-196.912 88.336-196.912 196.912v109.424h428.072v-109.424c-0.004-108.576-88.34-196.912-196.916-196.912z m174.62 284.048H157.516v-87.132c0-96.288 78.336-174.62 174.62-174.62h34.244c96.288 0 174.62 78.336 174.62 174.62v87.132z" fill="#44294F" /><path d="M283.772 428.212m-13.788 0a13.788 13.788 0 1 0 27.576 0 13.788 13.788 0 1 0-27.576 0Z" fill="#44294F" /><path d="M413.66 428.212m-13.788 0a13.788 13.788 0 1 0 27.576 0 13.788 13.788 0 1 0-27.576 0Z" fill="#44294F" /><path d="M268.104 464.068h162.312v81.156H268.104z" fill="#94D3CC" /><path d="M256.108 452.072v105.156h186.312v-105.156H256.108z m162.312 81.156H280.108v-57.156h138.312v57.156z" fill="#44294F" /><path d="M427.02 456.836l86.092-40.572 6.824 14.476-86.096 40.572zM183.36 430.64l7.16-14.308 81.148 40.576-7.156 14.308z" fill="#44294F" /><path d="M369.268 220.6H329.248c-67.232 0-121.732 54.504-121.732 121.736h283.488c-0.004-67.232-54.504-121.736-121.736-121.736z" fill="#94D3CC" /><path d="M369.268 208.6H329.252c-73.744 0-133.736 59.992-133.736 133.736v12h307.484v-12c0-73.744-59.992-133.736-133.732-133.736zM220.168 330.336C226.164 275.452 272.796 232.6 329.252 232.6h40.016c56.452 0 103.084 42.852 109.084 97.736H220.168z" fill="#44294F" /><path d="M349.256 261.18m-81.156 0a81.156 81.156 0 1 0 162.312 0 81.156 81.156 0 1 0-162.312 0Z" fill="#8479B9" /><path d="M349.256 168.024c-51.368 0-93.156 41.788-93.156 93.156s41.788 93.156 93.156 93.156 93.156-41.788 93.156-93.156-41.788-93.156-93.156-93.156z m0 162.312c-38.132 0-69.156-31.024-69.156-69.156s31.024-69.156 69.156-69.156 69.156 31.024 69.156 69.156-31.024 69.156-69.156 69.156z" fill="#44294F" /><path d="M349.256 261.18m-40.58 0a40.58 40.58 0 1 0 81.16 0 40.58 40.58 0 1 0-81.16 0Z" fill="#FCC800" /><path d="M349.256 208.6c-28.992 0-52.58 23.584-52.58 52.58S320.26 313.76 349.256 313.76s52.58-23.584 52.58-52.58S378.248 208.6 349.256 208.6z m0 81.156c-15.756 0-28.58-12.82-28.58-28.58s12.82-28.58 28.58-28.58 28.58 12.82 28.58 28.58-12.824 28.58-28.58 28.58z" fill="#44294F" /><path d="M366.372 585.804h-34.22c-19.424 0-38.14 3.008-55.732 8.54 4.236 36.496 35.208 64.84 72.84 64.84 37.64 0 68.616-28.356 72.844-64.86a185.484 185.484 0 0 0-55.732-8.52z" fill="#FFDDBE" /><path d="M425.704 582.872a197.776 197.776 0 0 0-59.332-9.068h-34.22c-20.176 0-40.136 3.06-59.332 9.084l-9.468 2.976 1.148 9.856c4.992 43.02 41.432 75.456 84.76 75.456 43.34 0 79.78-32.448 84.764-75.48l1.14-9.856-9.46-2.968z m-76.44 64.308a61.332 61.332 0 0 1-58.932-44.284 173.948 173.948 0 0 1 41.824-5.088h34.22c14.172 0 28.196 1.704 41.828 5.076a61.336 61.336 0 0 1-58.94 44.296z" fill="#44294F" /><path d="M611.184 478.784h81.852v391.056h-81.852z" fill="#8D386D" /><path d="M599.184 466.784V881.84h105.852V466.784h-105.852z m81.852 391.056h-57.852v-367.056h57.852v367.056z" fill="#44294F" /><path d="M645.692 478.784h24v243.468h-24zM645.692 762.832h24v40.58h-24z" fill="#44294F" /></svg>