<svg class="svg-icon" style="width: 1em;height: 1em;vertical-align: middle;fill: currentColor;overflow: hidden;" viewBox="0 0 1024 1024" version="1.1" xmlns="http://www.w3.org/2000/svg"><path d="M791 990.912H337c-52.936 0-96-43.064-96-96v-172a16 16 0 0 1 32 0v172c0 35.288 28.712 64 64 64h454c35.288 0 64-28.712 64-64v-324a16 16 0 0 1 32 0v324c0 52.936-43.068 96-96 96z" fill="#E0EBFC" /><path d="M791 998.912H337c-57.344 0-104-46.656-104-104v-172c0-13.232 10.764-24 24-24s24 10.768 24 24v172c0 30.88 25.12 56 56 56h454c30.88 0 56-25.12 56-56v-324c0-13.232 10.764-24 24-24s24 10.768 24 24v324c0 57.348-46.652 104-104 104z m-534-284c-4.412 0-8 3.588-8 8v172c0 48.524 39.476 88 88 88h454c48.524 0 88-39.476 88-88v-324c0-4.412-3.588-8-8-8s-8 3.588-8 8v324c0 39.7-32.3 72-72 72H337c-39.7 0-72-32.3-72-72v-172c0-4.412-3.588-8-8-8z" fill="#3762CC" /><path d="M904 624h-64a24 24 0 0 1-24-24v-48h112v48a24 24 0 0 1-24 24z" fill="#F9A7A7" /><path d="M904 632h-64c-17.644 0-32-14.356-32-32v-48a8 8 0 0 1 8-8h112a8 8 0 0 1 8 8v48c0 17.644-14.356 32-32 32z m-80-72v40c0 8.824 7.176 16 16 16h64c8.824 0 16-7.176 16-16v-40h-96z" fill="#3762CC" /><path d="M459.78 299.444a13.8 13.8 0 0 1-13.8-13.8V99.58c0-9.028-7.568-16.372-16.864-16.372H378a13.8 13.8 0 0 1 0-27.6h51.112c24.52 0 44.464 19.724 44.464 43.972v186.064a13.796 13.796 0 0 1-13.796 13.8zM61.112 304.472a13.8 13.8 0 0 1-13.8-13.8V104.608c0-24.248 19.948-43.972 44.464-43.972h51.108a13.8 13.8 0 0 1 0 27.6H91.78c-9.3 0-16.864 7.344-16.864 16.372v186.064a13.804 13.804 0 0 1-13.804 13.8z" fill="#FFEA92" /><path d="M218.388 103.272a37.24 37.24 0 0 0 15.224-29.952v-2.784a37.236 37.236 0 0 0-15.224-29.952 38.56 38.56 0 0 0-33.912-5.868l-33.064 9.9a10.08 10.08 0 0 0-7.244 9.62v35.384c0 4.428 2.94 8.332 7.244 9.62l33.064 9.9a38.58 38.58 0 0 0 33.912-5.868zM302.5 40.576a37.24 37.24 0 0 0-15.224 29.952v2.784a37.236 37.236 0 0 0 15.224 29.952 38.56 38.56 0 0 0 33.912 5.868l33.064-9.9a10.08 10.08 0 0 0 7.244-9.62v-35.384a10.072 10.072 0 0 0-7.244-9.62l-33.064-9.9a38.56 38.56 0 0 0-33.912 5.868z" fill="#6BDDDD" /><path d="M214.7 695.488v79.864a27.6 27.6 0 0 0 27.6 27.6h27.6a27.6 27.6 0 0 0 27.6-27.6v-79.864h-82.8z" fill="#F9A7A7" /><path d="M298.776 637.656H227.224c-15.856 0-31.248-1.912-46-5.44v32.852c0 16.8 13.62 30.42 30.42 30.42h92.496c16.8 0 30.42-13.62 30.42-30.42v-30.704a198.188 198.188 0 0 1-35.784 3.292z" fill="#A4C9FF" /><path d="M452.112 235.356c-11.292 0-20.444 9.004-20.444 20.116v191.092c0 72.208-59.496 130.748-132.888 130.748H227.224c-73.392 0-132.888-58.536-132.888-130.748V255.472c0-11.108-9.152-20.116-20.444-20.116h-20.444c-11.292 0-20.444 9.004-20.444 20.116v191.092c0 105.536 86.956 191.092 194.224 191.092h71.556c107.264 0 194.224-85.556 194.224-191.092V255.472c0-11.108-9.152-20.116-20.444-20.116h-20.452z" fill="#A4C9FF" /><path d="M298.776 645.656H227.224c-111.504 0-202.224-89.312-202.224-199.092V255.472c0-15.504 12.76-28.116 28.444-28.116h20.444c15.684 0 28.444 12.612 28.444 28.116v191.092c0 67.684 56.024 122.748 124.888 122.748h71.556c68.864 0 124.888-55.064 124.888-122.748V255.472c0-15.504 12.76-28.116 28.444-28.116h20.444c15.684 0 28.444 12.612 28.444 28.116v191.092c0.004 109.78-90.712 199.092-202.22 199.092zM53.444 243.356c-6.864 0-12.444 5.436-12.444 12.116v191.092c0 100.96 83.54 183.092 186.224 183.092h71.556c102.684 0 186.224-82.136 186.224-183.092V255.472c0-6.68-5.584-12.116-12.444-12.116h-20.444c-6.864 0-12.444 5.436-12.444 12.116v191.092c0 76.504-63.204 138.748-140.888 138.748h-71.56c-77.684 0-140.888-62.244-140.888-138.748V255.472c0-6.68-5.584-12.116-12.444-12.116h-20.448zM195.496 118.744c-4.472 0-8.956-0.64-13.316-1.944l-33.064-9.9c-7.748-2.32-12.952-9.268-12.952-17.288v-35.384c0-8.02 5.204-14.964 12.952-17.288l33.064-9.9a46.732 46.732 0 0 1 40.96 7.092c11.568 8.536 18.472 22.14 18.472 36.392v2.788c0 14.252-6.908 27.856-18.472 36.392a46.612 46.612 0 0 1-27.644 9.04z m22.892-15.472h0.04-0.04z m-22.864-62.176a30.44 30.44 0 0 0-8.752 1.28l-33.064 9.9a2.08 2.08 0 0 0-1.54 1.96v35.384a2.08 2.08 0 0 0 1.54 1.96l33.064 9.9a30.636 30.636 0 0 0 26.868-4.64c7.496-5.532 11.972-14.324 11.972-23.516v-2.788c0-9.192-4.476-17.984-11.972-23.516a30.508 30.508 0 0 0-18.116-5.924zM325.392 118.744c-9.852 0-19.604-3.104-27.644-9.036-11.568-8.536-18.472-22.14-18.472-36.392v-2.788c0-14.252 6.908-27.856 18.472-36.392a46.744 46.744 0 0 1 40.96-7.092l33.064 9.9c7.748 2.32 12.952 9.268 12.952 17.288v35.384c0 8.02-5.204 14.964-12.952 17.288L338.708 116.8a46.448 46.448 0 0 1-13.316 1.944z m-18.144-71.732c-7.496 5.532-11.972 14.324-11.972 23.516v2.788c0 9.192 4.476 17.984 11.972 23.516a30.672 30.672 0 0 0 26.868 4.64l33.064-9.9a2.08 2.08 0 0 0 1.54-1.96v-35.384a2.08 2.08 0 0 0-1.54-1.96l-33.064-9.9a30.668 30.668 0 0 0-26.868 4.644zM269.9 810.948h-27.6c-19.632 0-35.6-15.972-35.6-35.6v-79.864a8 8 0 0 1 8-8h82.8a8 8 0 0 1 8 8v79.864c0 19.632-15.972 35.6-35.6 35.6z m-47.2-107.46v71.864c0 10.808 8.792 19.6 19.6 19.6h27.6c10.808 0 19.6-8.792 19.6-19.6v-71.864h-66.8z" fill="#3762CC" /><path d="M304.136 703.488H211.64c-21.184 0-38.416-17.236-38.416-38.42v-32.852a7.996 7.996 0 0 1 9.86-7.78 190.092 190.092 0 0 0 44.14 5.22h71.556c11.34 0 22.892-1.064 34.336-3.16a8.008 8.008 0 0 1 9.444 7.868v30.704c-0.004 21.184-17.24 38.42-38.424 38.42z m-114.912-61.388v22.964a22.44 22.44 0 0 0 22.416 22.42h92.496a22.44 22.44 0 0 0 22.416-22.42v-21.324a204.956 204.956 0 0 1-27.776 1.912H227.224a205.088 205.088 0 0 1-38-3.552zM39.312 247.252v-142.64c0-28.656 23.536-51.972 52.464-51.972h51.112c0.652 0 1.276 0.06 1.904 0.148l6.92 0.94 0.452 7.04v34.628l-7.252 0.68a14.328 14.328 0 0 1-2.024 0.164H91.776c-4.888 0-8.864 3.756-8.864 8.372v139.244l-8.384-0.404a11.66 11.66 0 0 1-0.996-0.092h-20.088c-1.112 0-2.304 0.208-3.752 0.66l-10.38 3.232z m16-19.896h11.6V104.608c0-13.44 11.156-24.372 24.864-24.372h44.388v-11.6H91.776c-20.108 0-36.464 16.136-36.464 35.972v122.748zM437.98 247.252V99.58c0-4.616-3.98-8.372-8.868-8.372H378c-0.648 0-1.272-0.06-1.896-0.148l-6.92-0.94-0.46-7.04v-34.628l7.252-0.68c0.748-0.104 1.372-0.164 2.024-0.164h51.112c28.928 0 52.468 23.316 52.468 51.972v144.272l-8.384-0.404a11.66 11.66 0 0 1-0.996-0.092h-20.088c-1.112 0-2.304 0.208-3.752 0.66l-10.38 3.236z m16-19.896h11.6V99.58c0-19.836-16.36-35.972-36.468-35.972H384.724v11.6h44.388c13.712 0 24.868 10.932 24.868 24.372v127.776z" fill="#3762CC" /><path d="M871 452.912m-120 0a120 120 0 1 0 240 0 120 120 0 1 0-240 0Z" fill="#A4C9FF" /><path d="M871 452.912m-72 0a72 72 0 1 0 144 0 72 72 0 1 0-144 0Z" fill="#E0EBFC" /><path d="M871 580.912c-70.58 0-128-57.42-128-128s57.42-128 128-128 128 57.42 128 128-57.42 128-128 128z m0-240c-61.756 0-112 50.244-112 112s50.244 112 112 112 112-50.244 112-112-50.244-112-112-112z" fill="#3762CC" /><path d="M173.828 353.612h-0.376a20.32 20.32 0 0 1-20.32-20.32V318.56a20.32 20.32 0 0 1 20.32-20.32h0.376a20.32 20.32 0 0 1 20.32 20.32v14.732a20.32 20.32 0 0 1-20.32 20.32zM352.172 353.612h0.376a20.32 20.32 0 0 0 20.32-20.32V318.56a20.32 20.32 0 0 0-20.32-20.32h-0.376a20.32 20.32 0 0 0-20.32 20.32v14.732a20.32 20.32 0 0 0 20.32 20.32zM227.42 302.068h-0.376a20.32 20.32 0 0 1-20.32-20.32v-14.728a20.32 20.32 0 0 1 20.32-20.32h0.376a20.32 20.32 0 0 1 20.32 20.32v14.728a20.32 20.32 0 0 1-20.32 20.32zM297.068 302.068h0.376a20.32 20.32 0 0 0 20.32-20.32v-14.728a20.32 20.32 0 0 0-20.32-20.32h-0.376a20.32 20.32 0 0 0-20.32 20.32v14.728a20.32 20.32 0 0 0 20.32 20.32z" fill="#4671C6" /><path d="M173.832 361.612h-0.376a28.352 28.352 0 0 1-28.32-28.32V318.56a28.352 28.352 0 0 1 28.32-28.32c15.992 0 28.696 12.704 28.696 28.32v14.732c0 15.616-12.708 28.32-28.32 28.32z m0-55.372c-7.168 0-12.696 5.528-12.696 12.32v14.732a12.336 12.336 0 0 0 12.32 12.32h0.376a12.336 12.336 0 0 0 12.32-12.32V318.56a12.336 12.336 0 0 0-12.32-12.32zM352.544 361.612h-0.376a28.352 28.352 0 0 1-28.32-28.32V318.56a28.352 28.352 0 0 1 28.32-28.32c15.992 0 28.696 12.704 28.696 28.32v14.732a28.352 28.352 0 0 1-28.32 28.32z m0-55.372c-7.168 0-12.696 5.528-12.696 12.32v14.732a12.336 12.336 0 0 0 12.32 12.32h0.376a12.336 12.336 0 0 0 12.32-12.32V318.56a12.336 12.336 0 0 0-12.32-12.32zM227.42 310.068h-0.376a28.352 28.352 0 0 1-28.32-28.32v-14.728a28.352 28.352 0 0 1 28.32-28.32c15.992 0 28.696 12.704 28.696 28.32v14.728a28.352 28.352 0 0 1-28.32 28.32z m0-55.372c-7.168 0-12.696 5.528-12.696 12.32v14.728a12.336 12.336 0 0 0 12.32 12.32h0.376a12.336 12.336 0 0 0 12.32-12.32v-14.728a12.336 12.336 0 0 0-12.32-12.32zM297.444 310.068h-0.372a28.352 28.352 0 0 1-28.32-28.32v-14.728a28.352 28.352 0 0 1 28.32-28.32c15.988 0 28.692 12.704 28.692 28.32v14.728a28.352 28.352 0 0 1-28.32 28.32z m0-55.372c-7.168 0-12.692 5.528-12.692 12.32v14.728a12.336 12.336 0 0 0 12.32 12.32h0.372a12.336 12.336 0 0 0 12.32-12.32v-14.728a12.336 12.336 0 0 0-12.32-12.32z" fill="#3762CC" /><path d="M315.5 367.052c-2.368-0.56-4.008-2.46-4.008-4.628 0-23.716-21.708-42.94-48.488-42.94s-48.488 19.224-48.488 42.94c0 2.168-1.644 4.068-4.008 4.628-20.44 4.836-35.5 21.34-35.5 40.968v1.048c0 23.424 21.444 42.416 47.896 42.416H303.104c26.452 0 47.896-18.988 47.896-42.416v-1.048c0-19.628-15.06-36.132-35.5-40.968z" fill="#4671C6" /><path d="M303.104 459.484H222.896c-30.824 0-55.896-22.616-55.896-50.416v-1.048c0-22.248 16.168-41.804 39.584-48.224 1.52-26.872 26.244-48.312 56.416-48.312s54.896 21.44 56.416 48.312c23.416 6.416 39.584 25.972 39.584 48.224v1.048c0 27.8-25.076 50.416-55.896 50.416z m-40.104-132c-22.328 0-40.492 15.672-40.492 34.94 0 5.892-4.18 10.996-10.168 12.416-17.276 4.088-29.344 17.732-29.344 33.18v1.048c0 18.976 17.9 34.416 39.896 34.416h80.208c22 0 39.896-15.44 39.896-34.416v-1.048c0-15.448-12.068-29.092-29.34-33.18-5.988-1.416-10.168-6.524-10.168-12.416 0.004-19.268-18.16-34.94-40.488-34.94z" fill="#3762CC" /></svg>