<svg class="svg-icon" style="width: 1em;height: 1em;vertical-align: middle;fill: currentColor;overflow: hidden;" viewBox="0 0 1024 1024" version="1.1" xmlns="http://www.w3.org/2000/svg"><path d="M692.232 569.492l-272.4-272.4v-4.38a100.548 100.548 0 0 0 6.4-35.496v-128c0-49.484-34.984-89.6-78.14-89.6H236.464c-43.156 0-78.14 40.116-78.14 89.6v19.272c0 5.656-3.712 10.64-9.128 12.264l-65.664 19.664h-0.008c-22.804 0-41.292 21.2-41.292 47.352v71.7c0 26.152 18.488 47.352 41.292 47.352H235.08c3.472 0 6.568 1.504 8.752 3.864v90.572c-47.208 49.468-46.54 127.824 2.068 176.432l100.332 100.332 85.756 114.34c28.476 78.868 103.956 135.256 192.644 135.256 113.108 0 204.8-91.692 204.8-204.8 0-89.408-57.32-165.392-137.2-193.324z" fill="#A4C9FF" /><path d="M83.52 346.82h95.512a12.8 12.8 0 0 0 12.8-12.8v-36.572c0-36.356-34.384-65.828-76.8-65.828h-72.8v67.848c0 26.152 18.484 47.348 41.288 47.352z" fill="#E0EBFC" /><path d="M830.832 812.072c-25.44 0-44.68-4.864-46.264-5.28a25.6 25.6 0 0 1 12.86-49.56c1.1 0.276 55.848 13.608 88.556-11.828 17.68-13.752 26.648-38.04 26.648-72.184a25.6 25.6 0 0 1 51.2 0c0 50.92-15.708 88.88-46.692 112.816-26.94 20.812-59.952 26.036-86.308 26.036z" fill="#A4C9FF" /><path d="M830.832 820.072c-26.148 0-46.084-4.964-48.268-5.532-17.94-4.684-28.72-23.076-24.044-41 4.66-17.872 23.008-28.68 40.904-24.052 0.456 0.116 52.104 12.588 81.652-10.4 15.632-12.156 23.56-34.32 23.56-65.872 0-18.528 15.072-33.596 33.6-33.596s33.6 15.072 33.6 33.596c0 53.528-16.756 93.612-49.8 119.148-23.464 18.128-55.004 27.708-91.204 27.708z m-39.764-55.64a17.64 17.64 0 0 0-17.068 13.144 17.62 17.62 0 0 0 12.588 21.472c1.972 0.512 20.08 5.02 44.244 5.02 22.752 0 55.348-4.228 81.416-24.368 28.92-22.344 43.584-58.172 43.584-106.484 0-9.704-7.896-17.596-17.6-17.596s-17.6 7.896-17.6 17.596c0 36.744-10.004 63.156-29.736 78.504-35.644 27.716-92.976 13.876-95.4 13.272a17.988 17.988 0 0 0-4.428-0.56z" fill="#3762CC" /><path d="M624.632 762.82m-204.8 0a204.8 204.8 0 1 0 409.6 0 204.8 204.8 0 1 0-409.6 0Z" fill="#A4C9FF" /><path d="M582.912 967.62h-168.824a18.252 18.252 0 0 1-18.252-18.252v-4.308c0-32.932 26.696-59.628 59.628-59.628h127.452c21.508 0 38.94 17.436 38.94 38.94v4.308c-0.004 21.504-17.44 38.94-38.944 38.94zM359.032 615.62l-115.2-19.2 54.62 288h-32.868c-26.152 0-47.352 21.2-47.352 47.352v21.352a14.496 14.496 0 0 0 14.496 14.496h99.284c21.756 0 39.164-18.056 38.376-39.796l-11.356-312.204z" fill="#A4C9FF" /><path d="M227.832 167.62a19.2 19.2 0 0 1-19.2-19.2v-25.6a19.2 19.2 0 1 1 38.4 0v25.6a19.2 19.2 0 0 1-19.2 19.2zM624.632 975.62c-9.34 0-18.916-0.648-28.48-1.932a46.56 46.56 0 0 1-13.24 1.932h-168.824a26.28 26.28 0 0 1-26.252-26.252v-4.308c0-33.992 25.208-62.204 57.912-66.932-22.232-34.344-33.912-73.912-33.912-115.304 0-49.316 17.256-97.392 48.596-135.368a8 8 0 0 1 12.34 10.184c-28.976 35.112-44.936 79.572-44.936 125.18 0 42.868 13.536 83.604 39.152 117.816a8 8 0 0 1-6.404 12.792h-5.116c-28.468 0-51.628 23.16-51.628 51.628v4.308a10.264 10.264 0 0 0 10.252 10.252h168.824c3.348 0 6.7-0.564 9.964-1.676 1.192-0.408 2.468-0.524 3.712-0.352 9.428 1.348 18.864 2.028 28.048 2.028 108.516 0 196.8-88.284 196.8-196.8a8 8 0 0 1 16 0c-0.008 117.344-95.472 212.804-212.808 212.804z" fill="#3762CC" /><path d="M624.632 975.62c-88.972 0-169.088-55.972-199.752-139.408l-52.36-69.804 5.86 161.128a46.016 46.016 0 0 1-12.968 33.896 46.012 46.012 0 0 1-33.4 14.192H232.728a22.52 22.52 0 0 1-22.496-22.496v-21.352c0-30.52 24.832-55.352 55.352-55.352h23.208l-47.868-252.396-0.676-0.676c-50.372-50.372-52.084-132.784-4.416-185.244V354.896a3.772 3.772 0 0 0-0.752-0.076H83.524c-27.18 0-49.296-24.832-49.296-55.352V227.768c0-30.06 21.452-54.592 48.068-55.332l64.604-19.348c2.048-0.612 3.42-2.46 3.42-4.596v-19.272c0-53.816 38.644-97.596 86.14-97.596h111.628c47.496 0 86.14 43.78 86.14 97.596v128c0 12.652-2.12 24.972-6.304 36.656l268.68 268.68c84.304 30.304 140.824 110.552 140.824 200.264 0.004 117.34-95.46 212.8-212.796 212.8z m-261.036-242.444c2.468 0 4.86 1.144 6.404 3.2l68.392 91.188c0.476 0.636 0.856 1.336 1.124 2.084 28.072 77.744 102.464 129.976 185.116 129.976 108.516 0 196.8-88.284 196.8-196.8 0-83.544-52.984-158.2-131.84-185.776a7.944 7.944 0 0 1-3.016-1.896l-272.4-272.4a8 8 0 0 1-2.344-5.656v-4.38c0-0.964 0.172-1.916 0.512-2.82a92.36 92.36 0 0 0 5.884-32.676v-128c0-44.992-31.464-81.596-70.14-81.596H236.464c-38.676 0-70.14 36.604-70.14 81.596v19.272a20.668 20.668 0 0 1-14.832 19.924l-65.664 19.668a7.956 7.956 0 0 1-2.296 0.336c-18.364 0-33.304 17.652-33.304 39.348v71.7c0 21.7 14.936 39.352 33.296 39.352H235.08a20 20 0 0 1 14.628 6.436c1.368 1.48 2.124 3.416 2.124 5.428v90.572a8 8 0 0 1-2.212 5.524c-43.972 46.08-43.104 120.212 1.936 165.252l2.42 2.416c1.136 1.136 1.908 2.588 2.204 4.168l50.128 264.308a7.992 7.992 0 0 1-7.86 9.492h-32.868c-21.7 0-39.352 17.652-39.352 39.352v21.352c0 3.584 2.916 6.496 6.496 6.496h99.284a30.148 30.148 0 0 0 21.884-9.296 30.164 30.164 0 0 0 8.5-22.212l-6.788-186.648a8 8 0 0 1 7.992-8.284z" fill="#3762CC" /><path d="M439.032 276.42H395.3c-32.4 0-58.668-26.264-58.668-58.668V39.62h76.8c42.416 0 76.8 34.384 76.8 76.8v108.8c0 28.276-22.924 51.2-51.2 51.2z" fill="#4671C6" /><path d="M439.032 284.42H395.3c-36.76 0-66.668-29.908-66.668-66.668V39.62a8 8 0 0 1 8-8h76.8c46.756 0 84.8 38.044 84.8 84.8v108.796c0 32.648-26.56 59.204-59.2 59.204z m-94.4-236.8v170.132c0 27.936 22.732 50.668 50.668 50.668h43.732c23.82 0 43.2-19.38 43.2-43.204V116.42c0-37.936-30.864-68.8-68.8-68.8h-68.8z" fill="#3762CC" /><path d="M99.832 225.22v-32c0-6.072-2.2-11.576-5.732-15.964l-10.564 3.164h-0.008c-22.804 0-41.292 21.2-41.292 47.348v23.052h32a25.6 25.6 0 0 0 25.596-25.6z" fill="#4671C6" /><path d="M689.66 732.996l40.716-40.716 154.304 154.304-40.716 40.716z" fill="#E0EBFC" /><path d="M843.976 895.3a7.96 7.96 0 0 1-5.656-2.344l-154.304-154.304a8 8 0 0 1 0-11.312l40.712-40.716c3-3 8.312-3 11.312 0l154.308 154.304a8 8 0 0 1 0 11.312l-40.716 40.716a7.96 7.96 0 0 1-5.656 2.344z m-142.988-162.304l142.992 142.992 29.4-29.404-142.992-142.992-29.4 29.404z" fill="#3762CC" /><path d="M416.840939 741.479711a228.72 227.7 44.999 1 0 322.010808-322.022049 228.72 227.7 44.999 1 0-322.010808 322.022049Z" fill="#6BDDDD" /><path d="M578.168 745.604c-44.188-0.108-85.704-17.348-116.9-48.544-64.568-64.568-64.796-169.4-0.508-233.688 31.084-31.088 72.56-48.148 116.784-48.04 44.192 0.108 85.708 17.348 116.908 48.544 31.204 31.204 48.444 72.732 48.544 116.936 0.1 44.212-16.96 85.676-48.04 116.752-31.088 31.088-72.564 48.148-116.788 48.04z" fill="#6BDDDD" /><path d="M578.168 745.604c-44.188-0.108-85.704-17.348-116.9-48.544-64.568-64.568-64.796-169.4-0.508-233.688 31.084-31.088 72.56-48.148 116.784-48.04 44.192 0.108 85.708 17.348 116.908 48.544 31.204 31.204 48.444 72.732 48.544 116.936 0.1 44.212-16.96 85.676-48.04 116.752-31.088 31.088-72.564 48.148-116.788 48.04z" fill="#F9A7A7" /><path d="M469.064 621.14h7.168a11.992 11.992 0 0 0 11.984-12.624c-1.476-27.836-2.66-95.352 16.788-137.472 0.916-1.98-1.528-3.804-3.14-2.332-14.02 12.816-43.676 50.464-44.804 140.24a12.024 12.024 0 0 0 12.004 12.188zM541.064 709.14h7.168a11.992 11.992 0 0 0 11.984-12.624c-1.476-27.836-2.66-95.352 16.788-137.472 0.916-1.98-1.528-3.804-3.14-2.332-14.02 12.816-43.676 50.464-44.804 140.24a12.024 12.024 0 0 0 12.004 12.188zM645.064 629.14h7.168a11.992 11.992 0 0 0 11.984-12.624c-1.476-27.836-2.66-95.352 16.788-137.472 0.916-1.98-1.528-3.804-3.14-2.332-14.02 12.816-43.676 50.464-44.804 140.24a12.024 12.024 0 0 0 12.004 12.188zM592.216 528.52c-1.2-22.628-2.208-71.472 7.904-111.584a167.38 167.38 0 0 0-14.564-1.392c-12.116 22.088-23.8 57.708-24.496 113.412a12.024 12.024 0 0 0 12.004 12.184h7.168a11.984 11.984 0 0 0 11.984-12.62z" fill="#4671C6" /><path d="M607.032 681.62a16 8 0 1 0 32 0 16 8 0 1 0-32 0Z" fill="#F9CFCF" /><path d="M507.032 537.62a16 8 0 1 0 32 0 16 8 0 1 0-32 0Z" fill="#F9CFCF" /><path d="M691.032 577.62a16 8 0 1 0 32 0 16 8 0 1 0-32 0Z" fill="#F9CFCF" /><path d="M578.892 816.572h-0.544c-63.156-0.14-122.52-24.8-167.156-69.436-92.296-92.296-92.62-242.152-0.724-334.052 44.324-44.324 103.388-68.72 166.348-68.72h0.548c63.156 0.14 122.52 24.804 167.156 69.44s69.296 104 69.44 167.156c0.14 63.168-24.264 122.436-68.72 166.892-44.324 44.324-103.388 68.72-166.348 68.72z m-2.072-456.208c-58.692 0-113.732 22.728-155.036 64.032-85.66 85.66-85.336 225.364 0.724 311.424 41.624 41.62 96.984 64.616 155.876 64.752h0.508c58.692 0 113.736-22.728 155.04-64.032 41.42-41.42 64.164-96.66 64.032-155.544-0.132-58.9-23.128-114.252-64.752-155.88-41.624-41.624-96.984-64.62-155.88-64.752h-0.512z" fill="#3762CC" /><path d="M578.592 753.6h-0.444c-46.32-0.108-89.836-18.18-122.54-50.884-67.688-67.688-67.916-177.596-0.504-245.004 32.5-32.5 75.82-50.384 122.016-50.384h0.444c46.316 0.108 89.836 18.184 122.544 50.888 32.712 32.712 50.784 76.244 50.888 122.576 0.1 46.356-17.792 89.832-50.384 122.424-32.496 32.504-75.82 50.384-122.02 50.384z m-1.468-330.268c-41.928 0-81.228 16.22-110.708 45.696-29.576 29.58-45.816 69.024-45.724 111.068 0.092 42.06 16.508 81.588 46.232 111.312 29.688 29.688 69.204 46.092 111.264 46.196h0.404c41.932 0 81.232-16.22 110.708-45.696 29.56-29.564 45.788-69.012 45.696-111.076-0.096-42.076-16.5-81.6-46.2-111.3-29.696-29.692-69.212-46.096-111.268-46.2h-0.404z" fill="#3762CC" /><path d="M969.084 971.696c-16.912 16.912-44.332 16.912-61.244 0l-144.124-144.124a13.856 13.856 0 0 1 0-19.596l41.644-41.644a13.856 13.856 0 0 1 19.596 0l144.124 144.124c16.916 16.908 16.916 44.328 0.004 61.24z" fill="#EAA97D" /><path d="M938.464 992.384a50.96 50.96 0 0 1-36.276-15.032l-144.124-144.12c-4.128-4.128-6.404-9.616-6.404-15.456s2.272-11.328 6.404-15.452l41.648-41.648a21.872 21.872 0 0 1 30.912 0l144.12 144.124c9.692 9.688 15.028 22.576 15.028 36.276s-5.336 26.588-15.028 36.276a50.976 50.976 0 0 1-36.28 15.032z m-123.3-222.112c-1.5 0-3 0.572-4.144 1.712l-41.648 41.648a5.828 5.828 0 0 0-1.716 4.14c0 1.568 0.608 3.04 1.716 4.144l144.12 144.12c6.668 6.668 15.536 10.344 24.964 10.344s18.296-3.676 24.964-10.344c6.668-6.668 10.34-15.536 10.34-24.964s-3.672-18.296-10.34-24.964l-144.12-144.124a5.824 5.824 0 0 0-4.136-1.712z" fill="#3762CC" /></svg>