<svg class="svg-icon" style="width: 1em;height: 1em;vertical-align: middle;fill: currentColor;overflow: hidden;" viewBox="0 0 1024 1024" version="1.1" xmlns="http://www.w3.org/2000/svg"><path d="M499.076 326.68l-47.848-68.352a39.992 39.992 0 0 1-7.232-22.94V184H116v51.392a39.992 39.992 0 0 1-7.232 22.94L60.924 326.68A159.992 159.992 0 0 0 32 418.436v525.22c0 26.508 21.492 48 48 48h400c26.508 0 48-21.492 48-48V418.436a159.992 159.992 0 0 0-28.924-91.756z" fill="#F9A7A7" /><path d="M411.912 285.86a87.688 87.688 0 0 1-3.768-5.86c-4.348-7.384-12.176-12-20.744-12H172.604c-8.568 0-16.396 4.616-20.748 12-1.172 1.992-2.428 3.944-3.768 5.856l-47.84 68.348A112 112 0 0 0 80 418.436v501.22a24 24 0 0 0 24 24h352a24 24 0 0 0 24-24V418.436c0-22.98-7.068-45.4-20.244-64.228l-47.844-68.348z" fill="#6BDDDD" /><path d="M451.68 184H108.32A32.32 32.32 0 0 1 76 151.68V64.32A32.32 32.32 0 0 1 108.32 32h343.364a32.32 32.32 0 0 1 32.32 32.32v87.36A32.32 32.32 0 0 1 451.68 184z" fill="#4671C6" /><path d="M900.088 472h-8.176C841.152 472 800 430.848 800 380.088V123.912C800 73.152 841.152 32 891.912 32h8.176C950.848 32 992 73.152 992 123.912v256.176c0 50.76-41.152 91.912-91.912 91.912z" fill="#6BDDDD" /><path d="M800 252v126.46c0 46.892 39.912 89.932 88.896 93.296 56.228 3.864 103.104-38.552 103.104-91.424V252h-192zM704.088 992h-8.176C645.152 992 604 950.848 604 900.088v-256.176c0-50.76 41.152-91.912 91.912-91.912h8.176c50.76 0 91.912 41.152 91.912 91.912v256.176c0 50.76-41.152 91.912-91.912 91.912z" fill="#A4C9FF" /><path d="M604 772v128.332C604 950.96 646.98 992 700 992s96-41.04 96-91.668V772h-192z" fill="#6BDDDD" /><path d="M451.68 192H108.32C86.084 192 68 173.916 68 151.68V64.32C68 42.084 86.084 24 108.32 24h343.36C473.916 24 492 42.084 492 64.32v87.36c0 22.236-18.084 40.32-40.32 40.32zM108.32 40A24.348 24.348 0 0 0 84 64.32v87.36A24.348 24.348 0 0 0 108.32 176h343.36a24.344 24.344 0 0 0 24.32-24.32V64.32a24.348 24.348 0 0 0-24.32-24.32H108.32zM900.084 479.304h-8.172c-54.708 0-99.22-44.508-99.22-99.216V123.912c0-54.708 44.512-99.216 99.22-99.216h8.172c54.708 0 99.22 44.508 99.22 99.216v256.176c0 54.708-44.512 99.216-99.22 99.216z m-8.168-440c-46.656 0-84.608 37.956-84.608 84.608v256.176c0 46.656 37.952 84.608 84.608 84.608h8.172c46.656 0 84.608-37.956 84.608-84.608V123.912c0-46.656-37.952-84.608-84.608-84.608h-8.172z" fill="#3762CC" /><path d="M895.836 479.296c-2.476 0-4.956-0.084-7.44-0.256-51.876-3.564-95.7-49.624-95.7-100.584V252c0-4.032 3.268-7.304 7.304-7.304h192c4.036 0 7.304 3.268 7.304 7.304v128.332c0 26.92-11.084 52.092-31.212 70.884-19.336 18.056-45.332 28.08-72.256 28.08z m-88.532-219.992v119.156c0 43.568 37.592 82.952 82.088 86.012 25.564 1.728 50.572-6.972 68.736-23.928 17.132-15.996 26.568-37.38 26.568-60.208V259.304h-177.392zM704.084 999.304h-8.172c-54.708 0-99.22-44.508-99.22-99.216v-256.176c0-54.708 44.512-99.216 99.22-99.216h8.172c54.708 0 99.22 44.508 99.22 99.216v256.176c0 54.708-44.512 99.216-99.22 99.216z m-8.168-440c-46.656 0-84.608 37.956-84.608 84.608v256.176c0 46.656 37.952 84.608 84.608 84.608h8.172c46.656 0 84.608-37.956 84.608-84.608v-256.176c0-46.656-37.952-84.608-84.608-84.608h-8.172z" fill="#3762CC" /><path d="M700 999.304c-56.96 0-103.304-44.396-103.304-98.968V772c0-4.032 3.268-7.304 7.304-7.304h192c4.036 0 7.304 3.268 7.304 7.304v128.332c0 54.576-46.344 98.972-103.304 98.972z m-88.696-220v121.032c0 46.516 39.788 84.364 88.696 84.364s88.696-37.844 88.696-84.364v-121.032h-177.392zM480 999.656H80c-30.88 0-56-25.12-56-56V418.436c0-34.644 10.5-67.96 30.368-96.34l47.848-68.352A31.852 31.852 0 0 0 108 235.392V184a8 8 0 0 1 8-8h328a8 8 0 0 1 8 8v51.392c0 6.6 2 12.944 5.784 18.352l47.848 68.352A167.184 167.184 0 0 1 536 418.436v525.22c0 30.88-25.12 56-56 56zM124 192v43.392c0 9.9-3 19.416-8.676 27.528L67.476 331.268A151.26 151.26 0 0 0 40 418.436v525.22c0 22.056 17.944 40 40 40h400c22.056 0 40-17.944 40-40V418.436a151.268 151.268 0 0 0-27.476-87.168l-47.848-68.352A47.768 47.768 0 0 1 436 235.392V192H124z" fill="#3762CC" /><path d="M120 152a16 16 0 0 1-16-16V72a16 16 0 0 1 32 0v64a16 16 0 0 1-16 16zM200 152a16 16 0 0 1-16-16V72a16 16 0 0 1 32 0v64a16 16 0 0 1-16 16zM280 152a16 16 0 0 1-16-16V72a16 16 0 0 1 32 0v64a16 16 0 0 1-16 16zM360 152a16 16 0 0 1-16-16V72a16 16 0 0 1 32 0v64a16 16 0 0 1-16 16zM440 152a16 16 0 0 1-16-16V72a16 16 0 0 1 32 0v64a16 16 0 0 1-16 16z" fill="#A4C9FF" /><path d="M280 604m-160 0a160 160 0 1 0 320 0 160 160 0 1 0-320 0Z" fill="#F9CFCF" /><path d="M528 484H385.772c33.236 29.32 54.228 72.196 54.228 120s-20.992 90.68-54.228 120H528v-240zM120 604c0-47.804 20.992-90.68 54.228-120H32v240h142.228C140.992 694.68 120 651.804 120 604z" fill="#4671C6" /><path d="M190.644 615.012a28 28 0 0 1-28-28v-16a28 28 0 1 1 56 0v16a28 28 0 0 1-28 28zM369.356 615.012a28 28 0 0 0 28-28v-16a28 28 0 1 0-56 0v16a28 28 0 0 0 28 28z" fill="#4671C6" /><path d="M244.232 563.468a28 28 0 0 1-28-28v-16a28 28 0 1 1 56 0v16a28 28 0 0 1-28 28z" fill="#4671C6" /><path d="M314.256 563.468a28 28 0 0 0 28-28v-16a28 28 0 1 0-56 0v16a28 28 0 0 0 28 28z" fill="#4671C6" /><path d="M335.012 618.612c-2.48-0.62-4.2-2.72-4.2-5.12 0-26.232-22.748-47.492-50.808-47.492s-50.808 21.264-50.808 47.492c0 2.4-1.72 4.5-4.2 5.12-21.42 5.352-37.2 23.604-37.2 45.312v1.16c0 25.908 22.472 46.912 50.188 46.912h84.036c27.72 0 50.188-21.004 50.188-46.912v-1.16c0.004-21.708-15.776-39.96-37.196-45.312z" fill="#4671C6" /></svg>
