<svg class="svg-icon" style="width: 1em;height: 1em;vertical-align: middle;fill: currentColor;overflow: hidden;" viewBox="0 0 1024 1024" version="1.1" xmlns="http://www.w3.org/2000/svg"><path d="M845.004 634.968l-31.704-60.088h-0.3V528h-216v46.884h-0.3l-31.704 60.088a103 103 0 0 0-11.996 48.124v268.26c0 20.792 17.908 37.648 40 37.648h224c22.092 0 40-16.856 40-37.648v-268.26c0-16.7-4.104-33.172-11.996-48.128z" fill="#6BDDDD" /><path d="M784.944 616h-159.892a8 8 0 0 0-7.076 4.268l-17.608 33.368a63.404 63.404 0 0 0-7.372 29.456v249.908a16 16 0 0 0 16 16h192a16 16 0 0 0 16-16v-249.908a63.44 63.44 0 0 0-7.372-29.456l-17.608-33.368a7.992 7.992 0 0 0-7.072-4.268z" fill="#F9A7A7" /><path d="M409 797.724V374.148a30.644 30.644 0 0 0-30.648-30.648H231.648a30.644 30.644 0 0 0-30.648 30.648v423.576h208z" fill="#E0EBFC" /><path d="M241 796V399.5a16 16 0 0 1 16-16h96a16 16 0 0 1 16 16V796h-128z" fill="#B9BEFC" /><path d="M398.848 992H211.152a17.512 17.512 0 0 1-17.512-17.512v-21.208a17.512 17.512 0 0 1 17.512-17.512h187.7a17.512 17.512 0 0 1 17.512 17.512v21.208A17.512 17.512 0 0 1 398.848 992z" fill="#4671C6" /><path d="M257.272 840h95.456v96H257.272z" fill="#F9A7A7" /><path d="M433.324 840.568H176.676a11.68 11.68 0 0 1-11.676-11.676v-19.492a11.68 11.68 0 0 1 11.676-11.676h256.648a11.68 11.68 0 0 1 11.676 11.676v19.492a11.68 11.68 0 0 1-11.676 11.676z" fill="#F9CFCF" /><path d="M289.092 296h31.816V32l-31.816 16.248z" fill="#E0EBFC" /><path d="M277.256 527h-65.2c-5 0-9.056-4.476-9.056-10s4.052-10 9.056-10h65.2c5 0 9.056 4.476 9.056 10s-4.052 10-9.056 10zM299.444 599H212.508c-5 0-9.056-4.476-9.056-10s4.052-10 9.056-10h86.936c5 0 9.056 4.476 9.056 10s-4.052 10-9.056 10zM277.256 671h-65.2c-5 0-9.056-4.476-9.056-10s4.052-10 9.056-10h65.2c5 0 9.056 4.476 9.056 10s-4.052 10-9.056 10zM277.256 743h-65.2c-5 0-9.056-4.476-9.056-10s4.052-10 9.056-10h65.2c5 0 9.056 4.476 9.056 10s-4.052 10-9.056 10zM277.256 455h-65.2c-5 0-9.056-4.476-9.056-10s4.052-10 9.056-10h65.2c5 0 9.056 4.476 9.056 10s-4.052 10-9.056 10z" fill="#F9A7A7" /><path d="M365 343.5v-25.028a22.676 22.676 0 0 0-22.676-22.676H267.676a22.676 22.676 0 0 0-22.676 22.676v25.028h120z" fill="#A4C9FF" /><path d="M398.848 1000H211.152a25.54 25.54 0 0 1-25.512-25.512v-21.208a25.54 25.54 0 0 1 25.512-25.512h187.7a25.54 25.54 0 0 1 25.512 25.512v21.208A25.544 25.544 0 0 1 398.848 1000z m-187.696-56.236a9.52 9.52 0 0 0-9.512 9.512v21.208a9.52 9.52 0 0 0 9.512 9.512h187.7a9.52 9.52 0 0 0 9.512-9.512v-21.208a9.52 9.52 0 0 0-9.512-9.512H211.152z" fill="#3762CC" /><path d="M352.728 944H257.272a8 8 0 0 1-8-8v-96a8 8 0 0 1 8-8h95.452a8 8 0 0 1 8 8v96a8 8 0 0 1-7.996 8z m-87.456-16h79.452v-80H265.272v80z" fill="#3762CC" /><path d="M433.324 848.568H176.676a19.7 19.7 0 0 1-19.676-19.676v-19.492a19.7 19.7 0 0 1 19.676-19.676h256.648a19.7 19.7 0 0 1 19.676 19.676v19.492a19.696 19.696 0 0 1-19.676 19.676z m-256.648-42.844a3.68 3.68 0 0 0-3.676 3.676v19.492a3.68 3.68 0 0 0 3.676 3.676h256.648a3.68 3.68 0 0 0 3.676-3.676v-19.492a3.68 3.68 0 0 0-3.676-3.676H176.676zM320.908 304h-31.816a8 8 0 0 1-8-8V48.248a8 8 0 0 1 4.36-7.124l31.816-16.248A8 8 0 0 1 328.908 32v264a8 8 0 0 1-8 8z m-23.816-16h15.816V45.068l-15.816 8.076V288z" fill="#3762CC" /><path d="M365 351.5h-120a8 8 0 0 1-8-8v-25.024c0-16.916 13.76-30.676 30.676-30.676h74.652c16.916 0 30.672 13.76 30.672 30.676v25.024a8 8 0 0 1-8 8z m-112-16h104v-17.024a14.692 14.692 0 0 0-14.672-14.676H267.676a14.692 14.692 0 0 0-14.676 14.676v17.024z" fill="#3762CC" /><path d="M409 805.724h-208a8 8 0 0 1-8-8V374.148c0-21.312 17.336-38.648 38.648-38.648h146.704c21.312 0 38.648 17.336 38.648 38.648v423.576a8 8 0 0 1-8 8z m-200-16h192V374.148a22.672 22.672 0 0 0-22.648-22.648H231.648a22.672 22.672 0 0 0-22.648 22.648v415.576z" fill="#3762CC" /><path d="M773 528v-126a32 32 0 0 0-32-32h-72a32 32 0 0 0-32 32V528h136z" fill="#B9BEFC" /><path d="M773 536h-136a8 8 0 0 1-8-8v-126c0-22.056 17.944-40 40-40h72c22.056 0 40 17.944 40 40V528a8 8 0 0 1-8 8z m-128-16h120v-118c0-13.236-10.764-24-24-24h-72c-13.236 0-24 10.764-24 24V520z" fill="#3762CC" /><path d="M555 724h304v144h-304z" fill="#F9CFCF" /><path d="M829 528h-248a16 16 0 0 1-16-16v-36a16 16 0 0 1 16-16h248a16 16 0 0 1 16 16v36a16 16 0 0 1-16 16z" fill="#E0EBFC" /><path d="M669 602h72a32 32 0 0 0 32-32V528h-136v42a32 32 0 0 0 32 32z" fill="#4671C6" /><path d="M829 536h-248c-13.236 0-24-10.764-24-24v-36c0-13.236 10.764-24 24-24h248c13.236 0 24 10.764 24 24v36c0 13.236-10.764 24-24 24z m-248-68c-4.412 0-8 3.588-8 8v36c0 4.412 3.588 8 8 8h248c4.412 0 8-3.588 8-8v-36c0-4.412-3.588-8-8-8h-248z" fill="#3762CC" /><path d="M817 997h-224c-26.468 0-48-20.476-48-45.648v-268.26c0-17.904 4.468-35.836 12.92-51.856l31.08-58.904V528a8 8 0 0 1 8-8h216a8 8 0 0 1 8 8v44.332l31.08 58.904a111.592 111.592 0 0 1 12.92 51.856v268.26c0 25.172-21.532 45.648-48 45.648z m-214.116-416.7l-30.812 58.4a95.524 95.524 0 0 0-11.072 44.392v268.26c0 16.348 14.356 29.648 32 29.648h224c17.644 0 32-13.3 32-29.648v-268.26c0-15.312-3.828-30.664-11.072-44.392l-31-58.756a7.728 7.728 0 0 1-1.928-5.064V536h-200v38.884c0 2.088-0.8 3.992-2.116 5.416z" fill="#3762CC" /><path d="M652.648 805.44h-0.94a16.708 16.708 0 0 1-16.708-16.708v-8.372a16.708 16.708 0 0 1 16.708-16.708h0.94a16.708 16.708 0 0 1 16.708 16.708v8.372a16.708 16.708 0 0 1-16.708 16.708zM761.352 805.44h0.94a16.708 16.708 0 0 0 16.708-16.708v-8.372a16.708 16.708 0 0 0-16.708-16.708h-0.94a16.708 16.708 0 0 0-16.708 16.708v8.372a16.708 16.708 0 0 0 16.708 16.708zM685.524 775.524h-0.94a16.708 16.708 0 0 1-16.708-16.708v-8.372a16.708 16.708 0 0 1 16.708-16.708h0.94a16.708 16.708 0 0 1 16.708 16.708v8.372a16.704 16.704 0 0 1-16.708 16.708zM727.548 775.524h0.94a16.708 16.708 0 0 0 16.708-16.708v-8.372a16.708 16.708 0 0 0-16.708-16.708h-0.94a16.708 16.708 0 0 0-16.708 16.708v8.372a16.708 16.708 0 0 0 16.708 16.708zM740.752 807.532c-1.52-0.36-2.576-1.58-2.576-2.972 0-15.224-13.956-27.568-31.172-27.568s-31.172 12.34-31.172 27.568c0 1.392-1.056 2.612-2.576 2.972-13.14 3.104-22.824 13.7-22.824 26.3v0.672c0 15.04 13.784 27.228 30.792 27.228h51.56c17.004 0 30.792-12.192 30.792-27.228v-0.672c-0.004-12.6-9.684-23.196-22.824-26.3z" fill="#4671C6" /></svg>