<svg class="svg-icon" style="width: 1em;height: 1em;vertical-align: middle;fill: currentColor;overflow: hidden;" viewBox="0 0 1024 1024" version="1.1" xmlns="http://www.w3.org/2000/svg"><path d="M64.488 198.24h59.024a30.488 30.488 0 0 1 30.488 30.488v38.744h-120v-38.744a30.488 30.488 0 0 1 30.488-30.488z" fill="#6BDDDD" /><path d="M918.196 32H325.804C286.148 32 254 63.26 254 101.82v820.36c0 9.64 2.008 18.824 5.644 27.176a69.16 69.16 0 0 0 6.62 11.86c12.904 18.572 34.756 30.78 59.54 30.78h592.392c39.656 0 71.804-31.26 71.804-69.816V101.82C990 63.26 957.852 32 918.196 32z" fill="#E0EBFC" /><path d="M154 744.108h-120V321.784h120z" fill="#A4C9FF" /><path d="M154 744.108h-120l53.008 82.572c3.048 4.748 10.94 4.748 13.988 0L154 744.108z" fill="#F9CFCF" /><path d="M34 259.472h120v62.312h-120z" fill="#F9A7A7" /><path d="M891.268 563.64H352.732a16 16 0 0 1 0-32h538.54a16 16 0 1 1-0.004 32zM891.268 658.912H352.732a16 16 0 0 1 0-32h538.54a16 16 0 1 1-0.004 32zM892 754.184H352.732a16 16 0 0 1 0-32H892a16 16 0 0 1 0 32zM891.268 467.64H352.732a16 16 0 0 1 0-32h538.54a16 16 0 1 1-0.004 32z" fill="#B9BEFC" /><path d="M620 220.328m-143.856 0a143.856 143.856 0 1 0 287.712 0 143.856 143.856 0 1 0-287.712 0Z" fill="#F9A7A7" /><path d="M620 220.328m-111.888 0a111.888 111.888 0 1 0 223.776 0 111.888 111.888 0 1 0-223.776 0Z" fill="#FFEA92" /><path d="M553.836 218.936h-3.984a19.36 19.36 0 0 1-19.364-19.364v-15.544a19.36 19.36 0 0 1 19.364-19.364h3.984a19.36 19.36 0 0 1 19.364 19.364v15.544a19.364 19.364 0 0 1-19.364 19.364zM686.164 218.936h3.984a19.36 19.36 0 0 0 19.364-19.364v-15.544a19.36 19.36 0 0 0-19.364-19.364h-3.984a19.36 19.36 0 0 0-19.364 19.364v15.544a19.364 19.364 0 0 0 19.364 19.364zM594.712 180.084h-3.984a19.36 19.36 0 0 1-19.364-19.364v-15.544a19.36 19.36 0 0 1 19.364-19.364h3.984a19.36 19.36 0 0 1 19.364 19.364v15.544a19.368 19.368 0 0 1-19.364 19.364zM644.136 180.084h3.984a19.36 19.36 0 0 0 19.364-19.364v-15.544a19.36 19.36 0 0 0-19.364-19.364h-3.984a19.36 19.36 0 0 0-19.364 19.364v15.544a19.368 19.368 0 0 0 19.364 19.364zM661.96 221.648c-1.892-0.468-3.204-2.052-3.204-3.86 0-19.772-17.352-35.8-38.752-35.8-21.404 0-38.752 16.028-38.752 35.8 0 1.808-1.312 3.392-3.204 3.86-16.336 4.032-28.372 17.792-28.372 34.156v0.876c0 19.532 17.14 35.364 38.28 35.364h64.096c21.14 0 38.28-15.832 38.28-35.364v-0.876c0-16.364-12.036-30.12-28.372-34.156z" fill="#4671C6" /><path d="M620 372.184c-83.736 0-151.856-68.124-151.856-151.856 0-83.736 68.12-151.856 151.856-151.856s151.856 68.124 151.856 151.856S703.736 372.184 620 372.184z m0-287.712c-74.912 0-135.856 60.944-135.856 135.856 0 74.912 60.944 135.856 135.856 135.856s135.856-60.944 135.856-135.856c0-74.912-60.944-135.856-135.856-135.856z" fill="#3762CC" /><path d="M918.196 1000H325.804c-26.508 0-51.224-12.792-66.112-34.216a77.544 77.544 0 0 1-7.384-13.236 75.592 75.592 0 0 1-6.308-30.368V101.82C246 58.912 281.8 24 325.804 24h592.392C962.2 24 998 58.912 998 101.82v820.36c0 42.908-35.8 77.82-79.804 77.82zM325.804 40C290.62 40 262 67.736 262 101.82v820.36c0 8.324 1.676 16.396 4.98 23.984 1.588 3.656 3.56 7.184 5.856 10.492 11.896 17.12 31.7 27.34 52.968 27.34h592.392c35.184 0 63.804-27.732 63.804-61.82V101.82c0-34.084-28.62-61.82-63.804-61.82H325.804z" fill="#3762CC" /><path d="M64.488 198.24h59.024a30.488 30.488 0 0 1 30.488 30.488v38.744h-120v-38.744a30.488 30.488 0 0 1 30.488-30.488z" fill="#6BDDDD" /><path d="M154 744.108h-120V321.784h120z" fill="#A4C9FF" /><path d="M154 744.108h-120l53.008 82.572c3.048 4.748 10.94 4.748 13.988 0L154 744.108z" fill="#F9CFCF" /><path d="M94 838.24c-5.684 0-10.816-2.708-13.728-7.244L27.268 748.428a7.988 7.988 0 0 1-1.268-4.32V228.728c0-21.224 17.264-38.488 38.488-38.488h59.024c21.224 0 38.488 17.264 38.488 38.488v515.38c0 1.532-0.44 3.032-1.268 4.324L107.724 831c-2.908 4.532-8.04 7.24-13.724 7.24z m-52-96.48l51.74 80.596c0.008-0.088 0.516-0.088 0.708-0.196L146 741.764V228.728c0-12.4-10.088-22.488-22.488-22.488H64.488a22.512 22.512 0 0 0-22.488 22.488V741.76z m112 2.348h0.04-0.04z" fill="#3762CC" /></svg>